<mxfile host="app.diagrams.net" agent="Mozilla/5.0 (Macintosh; Intel Mac OS X 10_15_7) AppleWebKit/537.36 (KHTML, like Gecko) Chrome/136.0.0.0 Safari/537.36" version="27.1.4">
  <diagram name="Page-1" id="BCtbxXDX6_IMJVcOEvVF">
    <mxGraphModel dx="1234" dy="721" grid="1" gridSize="10" guides="1" tooltips="1" connect="1" arrows="1" fold="1" page="1" pageScale="1" pageWidth="850" pageHeight="1100" math="0" shadow="0">
      <root>
        <mxCell id="0" />
        <mxCell id="1" parent="0" />
        <mxCell id="Hr4rtZjNvh9kyPlDRhsV-1" value="" style="rounded=1;whiteSpace=wrap;html=1;strokeColor=light-dark(#475e75, #ba98ff);fillColor=light-dark(#f5f6f7, #221e2e);arcSize=24;absoluteArcSize=1;imageWidth=64;imageHeight=64;strokeWidth=1.5;" parent="1" vertex="1">
          <mxGeometry x="250" y="384" width="223" height="597" as="geometry" />
        </mxCell>
        <mxCell id="Hr4rtZjNvh9kyPlDRhsV-2" value="" style="group" parent="1" vertex="1" connectable="0">
          <mxGeometry x="1160" y="365" width="390" height="440" as="geometry" />
        </mxCell>
        <mxCell id="Hr4rtZjNvh9kyPlDRhsV-3" value="" style="rounded=1;whiteSpace=wrap;html=1;strokeColor=light-dark(#8466fe, #8ea2b5);fillColor=light-dark(#f2eefc, #1a1a1b);arcSize=24;absoluteArcSize=1;imageWidth=64;imageHeight=64;strokeWidth=1.5;" parent="Hr4rtZjNvh9kyPlDRhsV-2" vertex="1">
          <mxGeometry width="219" height="220" as="geometry" />
        </mxCell>
        <mxCell id="Hr4rtZjNvh9kyPlDRhsV-4" value="&lt;div&gt;&lt;span style=&quot;font-size: 14px;&quot;&gt;Business Partner Integration System&lt;/span&gt;&lt;/div&gt;&lt;div&gt;&lt;span style=&quot;font-size: 14px;&quot;&gt;&lt;br&gt;&lt;/span&gt;&lt;/div&gt;&lt;div&gt;&lt;span style=&quot;font-size: 14px;&quot;&gt;&lt;br&gt;&lt;/span&gt;&lt;/div&gt;&lt;div&gt;&lt;span style=&quot;font-size: 14px;&quot;&gt;&lt;br&gt;&lt;/span&gt;&lt;/div&gt;&lt;div&gt;&lt;span style=&quot;font-size: 14px;&quot;&gt;&lt;br&gt;&lt;/span&gt;&lt;/div&gt;" style="rounded=1;whiteSpace=wrap;html=1;strokeColor=light-dark(#8466fe, #BA98FF);fillColor=#ffffff;arcSize=24;absoluteArcSize=1;imageWidth=64;imageHeight=64;strokeWidth=1.5;" parent="Hr4rtZjNvh9kyPlDRhsV-2" vertex="1">
          <mxGeometry x="20" y="56" width="174" height="144" as="geometry" />
        </mxCell>
        <mxCell id="Hr4rtZjNvh9kyPlDRhsV-5" value="&lt;font face=&quot;arial&quot; style=&quot;font-size: 16px;&quot;&gt;&lt;b style=&quot;font-size: 16px;&quot;&gt;Seeburger&lt;/b&gt;&lt;/font&gt;" style="text;html=1;align=left;verticalAlign=middle;resizable=0;points=[];autosize=1;strokeColor=none;fillColor=none;fontSize=12;fontColor=#1d2d3e;fontFamily=Helvetica;" parent="Hr4rtZjNvh9kyPlDRhsV-2" vertex="1">
          <mxGeometry x="73.5" y="7" width="97" height="31" as="geometry" />
        </mxCell>
        <mxCell id="Hr4rtZjNvh9kyPlDRhsV-6" value="" style="shape=image;verticalLabelPosition=bottom;verticalAlign=top;imageAspect=0;aspect=fixed;image=data:image/svg+xml,PHN2ZyB4bWxucz0iaHR0cDovL3d3dy53My5vcmcvMjAwMC9zdmciIGZpbGw9Im5vbmUiIHZpZXdCb3g9IjAgMCAxNyAxNyIgaGVpZ2h0PSIxNyIgd2lkdGg9IjE3Ij4mI3hhOzxwYXRoIGZpbGw9InVybCgjcGFpbnQwX2xpbmVhcl8yXzI4Nzk4KSIgZD0iTTAuMjEzODY3IDguNTUyNzNDMC4yMTM4NjcgNy40Njk0IDAuNDIyMjAxIDYuNDU4OTggMC44Mzg4NjcgNS41MjE0OEMxLjI1NTUzIDQuNTYzMTUgMS44MTgwMyAzLjcyOTgyIDIuNTI2MzcgMy4wMjE0OEMzLjIzNDcgMi4zMTMxNSA0LjA2ODAzIDEuNzUwNjUgNS4wMjYzNyAxLjMzMzk4QzUuOTg0NyAwLjkxNzMxOCA3LjAwNTUzIDAuNzA4OTg0IDguMDg4ODcgMC43MDg5ODRDOS4xNzIyIDAuNzA4OTg0IDEwLjE4MjYgMC45MTczMTggMTEuMTIwMSAxLjMzMzk4QzEyLjA3ODUgMS43NTA2NSAxMi45MTE4IDIuMzEzMTUgMTMuNjIwMSAzLjAyMTQ4QzE0LjMyODUgMy43Mjk4MiAxNC44OTEgNC41NjMxNSAxNS4zMDc2IDUuNTIxNDhDMTUuNzI0MyA2LjQ1ODk4IDE1LjkzMjYgNy40Njk0IDE1LjkzMjYgOC41NTI3M0MxNS45MzI2IDkuNjM2MDcgMTUuNzI0MyAxMC42NTY5IDE1LjMwNzYgMTEuNjE1MkMxNC44OTEgMTIuNTczNiAxNC4zMjg1IDEzLjQwNjkgMTMuNjIwMSAxNC4xMTUyQzEyLjkxMTggMTQuODIzNiAxMi4wNzg1IDE1LjM4NjEgMTEuMTIwMSAxNS44MDI3QzEwLjE4MjYgMTYuMjE5NCA5LjE3MjIgMTYuNDI3NyA4LjA4ODg3IDE2LjQyNzdDNy4wMDU1MyAxNi40Mjc3IDUuOTg0NyAxNi4yMTk0IDUuMDI2MzcgMTUuODAyN0M0LjA2ODAzIDE1LjM4NjEgMy4yMzQ3IDE0LjgyMzYgMi41MjYzNyAxNC4xMTUyQzEuODE4MDMgMTMuNDA2OSAxLjI1NTUzIDEyLjU3MzYgMC44Mzg4NjcgMTEuNjE1MkMwLjQyMjIwMSAxMC42NTY5IDAuMjEzODY3IDkuNjM2MDcgMC4yMTM4NjcgOC41NTI3M1pNOS42NTEzNyAxMC45Mjc3QzEwLjMxOCAxMC45Mjc3IDEwLjkzMjYgMTEuMDg0IDExLjQ5NTEgMTEuMzk2NUMxMi4wNTc2IDExLjY4ODIgMTIuNTE2IDEyLjA5NDQgMTIuODcwMSAxMi42MTUyQzEzLjM0OTMgMTIuMDczNiAxMy43MTM5IDExLjQ1OSAxMy45NjM5IDEwLjc3MTVDMTQuMjM0NyAxMC4wODQgMTQuMzcwMSA5LjM0NDQgMTQuMzcwMSA4LjU1MjczQzE0LjM3MDEgNy42Nzc3MyAxNC4yMDM1IDYuODY1MjMgMTMuODcwMSA2LjExNTIzQzEzLjUzNjggNS4zNDQ0IDEzLjA4ODkgNC42Nzc3MyAxMi41MjY0IDQuMTE1MjNDMTEuOTYzOSAzLjU1MjczIDExLjI5NzIgMy4xMDQ4MiAxMC41MjY0IDIuNzcxNDhDOS43NzYzNyAyLjQzODE1IDguOTYzODcgMi4yNzE0OCA4LjA4ODg3IDIuMjcxNDhDNy4yMTM4NyAyLjI3MTQ4IDYuMzkwOTUgMi40MzgxNSA1LjYyMDEyIDIuNzcxNDhDNC44NzAxMiAzLjEwNDgyIDQuMjAzNDUgMy41NTI3MyAzLjYyMDEyIDQuMTE1MjNDMy4wNTc2MiA0LjY3NzczIDIuNjA5NyA1LjM0NDQgMi4yNzYzNyA2LjExNTIzQzEuOTQzMDMgNi44NjUyMyAxLjc3NjM3IDcuNjc3NzMgMS43NzYzNyA4LjU1MjczQzEuNzc2MzcgOS4zNDQ0IDEuOTAxMzcgMTAuMDg0IDIuMTUxMzcgMTAuNzcxNUMyLjQyMjIgMTEuNDU5IDIuNzk3MiAxMi4wNzM2IDMuMjc2MzcgMTIuNjE1MkMzLjYzMDUzIDEyLjA5NDQgNC4wODg4NyAxMS42ODgyIDQuNjUxMzcgMTEuMzk2NUM1LjIxMzg3IDExLjA4NCA1LjgyODQ1IDEwLjkyNzcgNi40OTUxMiAxMC45Mjc3SDkuNjUxMzdaTTExLjIxMzkgNi45OTAyM0MxMS4yMTM5IDcuNDI3NzMgMTEuMTMwNSA3Ljg0NDQgMTAuOTYzOSA4LjI0MDIzQzEwLjc5NzIgOC42MTUyMyAxMC41NjggOC45NDg1NyAxMC4yNzY0IDkuMjQwMjNDMTAuMDA1NSA5LjUxMTA3IDkuNjgyNjIgOS43Mjk4MiA5LjMwNzYyIDkuODk2NDhDOC45MzI2MiAxMC4wNjMyIDguNTI2MzcgMTAuMTQ2NSA4LjA4ODg3IDEwLjE0NjVDNy42NTEzNyAxMC4xNDY1IDcuMjM0NyAxMC4wNjMyIDYuODM4ODcgOS44OTY0OEM2LjQ2Mzg3IDkuNzI5ODIgNi4xMzA1MyA5LjUxMTA3IDUuODM4ODcgOS4yNDAyM0M1LjU2ODAzIDguOTQ4NTcgNS4zNDkyOCA4LjYxNTIzIDUuMTgyNjIgOC4yNDAyM0M1LjAxNTk1IDcuODQ0NCA0LjkzMjYyIDcuNDI3NzMgNC45MzI2MiA2Ljk5MDIzQzQuOTMyNjIgNi41NTI3MyA1LjAxNTk1IDYuMTQ2NDggNS4xODI2MiA1Ljc3MTQ4QzUuMzQ5MjggNS4zOTY0OCA1LjU2ODAzIDUuMDYzMTUgNS44Mzg4NyA0Ljc3MTQ4QzYuMTMwNTMgNC40Nzk4MiA2LjQ2Mzg3IDQuMjUwNjUgNi44Mzg4NyA0LjA4Mzk4QzcuMjM0NyAzLjkxNzMyIDcuNjUxMzcgMy44MzM5OCA4LjA4ODg3IDMuODMzOThDOC41MjYzNyAzLjgzMzk4IDguOTMyNjIgMy45MTczMiA5LjMwNzYyIDQuMDgzOThDOS42ODI2MiA0LjI1MDY1IDEwLjAwNTUgNC40Nzk4MiAxMC4yNzY0IDQuNzcxNDhDMTAuNTY4IDUuMDYzMTUgMTAuNzk3MiA1LjM5NjQ4IDEwLjk2MzkgNS43NzE0OEMxMS4xMzA1IDYuMTQ2NDggMTEuMjEzOSA2LjU1MjczIDExLjIxMzkgNi45OTAyM1pNOS42NTEzNyA2Ljk5MDIzQzkuNjUxMzcgNi41NTI3MyA5LjQ5NTEyIDYuMTg4MTUgOS4xODI2MiA1Ljg5NjQ4QzguODcwMTIgNS41ODM5OCA4LjUwNTUzIDUuNDI3NzMgOC4wODg4NyA1LjQyNzczQzcuNjUxMzcgNS40Mjc3MyA3LjI3NjM3IDUuNTgzOTggNi45NjM4NyA1Ljg5NjQ4QzYuNjUxMzcgNi4xODgxNSA2LjQ5NTEyIDYuNTUyNzMgNi40OTUxMiA2Ljk5MDIzQzYuNDk1MTIgNy40Mjc3MyA2LjY1MTM3IDcuODAyNzMgNi45NjM4NyA4LjExNTIzQzcuMjc2MzcgOC40MDY5IDcuNjUxMzcgOC41NTI3MyA4LjA4ODg3IDguNTUyNzNDOC41MDU1MyA4LjU1MjczIDguODcwMTIgOC40MDY5IDkuMTgyNjIgOC4xMTUyM0M5LjQ5NTEyIDcuODAyNzMgOS42NTEzNyA3LjQyNzczIDkuNjUxMzcgNi45OTAyM1pNNC40NjM4NyAxMy43MDlDNC45NjM4NyAxNC4wNjMyIDUuNTE1OTUgMTQuMzQ0NCA2LjEyMDEyIDE0LjU1MjdDNi43NDUxMiAxNC43NjExIDcuNDAxMzcgMTQuODY1MiA4LjA4ODg3IDE0Ljg2NTJDOC43NTU1MyAxNC44NjUyIDkuMzkwOTUgMTQuNzYxMSA5Ljk5NTEyIDE0LjU1MjdDMTAuNjIwMSAxNC4zNDQ0IDExLjE4MjYgMTQuMDYzMiAxMS42ODI2IDEzLjcwOUMxMS40NzQzIDEzLjMzNCAxMS4xODI2IDEzLjA0MjMgMTAuODA3NiAxMi44MzRDMTAuNDUzNSAxMi42MDQ4IDEwLjA2OCAxMi40OTAyIDkuNjUxMzcgMTIuNDkwMkg2LjQ5NTEyQzYuMDc4NDUgMTIuNDkwMiA1LjY4MjYyIDEyLjYwNDggNS4zMDc2MiAxMi44MzRDNC45NTM0NSAxMy4wNDIzIDQuNjcyMiAxMy4zMzQgNC40NjM4NyAxMy43MDlaIi8+JiN4YTs8ZGVmcz4mI3hhOzxsaW5lYXJHcmFkaWVudCBncmFkaWVudFVuaXRzPSJ1c2VyU3BhY2VPblVzZSIgeTI9IjE2LjQyNzciIHgyPSI4LjA3MzI0IiB5MT0iMC43MDg5ODQiIHgxPSI4LjA3MzI0IiBpZD0icGFpbnQwX2xpbmVhcl8yXzI4Nzk4Ij4mI3hhOzxzdG9wIHN0b3AtY29sb3I9IiM1QjczOEIiLz4mI3hhOzxzdG9wIHN0b3AtY29sb3I9IiMyMjM1NDgiIG9mZnNldD0iMSIvPiYjeGE7PC9saW5lYXJHcmFkaWVudD4mI3hhOzwvZGVmcz4mI3hhOzwvc3ZnPg==;strokeWidth=1.5;" parent="Hr4rtZjNvh9kyPlDRhsV-2" vertex="1">
          <mxGeometry x="85.5" y="303" width="48" height="48" as="geometry" />
        </mxCell>
        <mxCell id="Hr4rtZjNvh9kyPlDRhsV-7" value="&lt;font color=&quot;#1d2d3e&quot; size=&quot;1&quot; face=&quot;arial&quot;&gt;&lt;b style=&quot;font-size: 14px;&quot;&gt;Partner/&lt;/b&gt;&lt;/font&gt;&lt;div&gt;&lt;font color=&quot;#1d2d3e&quot; size=&quot;1&quot; face=&quot;arial&quot;&gt;&lt;b style=&quot;font-size: 14px;&quot;&gt;Client/&lt;/b&gt;&lt;/font&gt;&lt;/div&gt;&lt;div&gt;&lt;font color=&quot;#1d2d3e&quot; size=&quot;1&quot; face=&quot;arial&quot;&gt;&lt;b style=&quot;font-size: 14px;&quot;&gt;Supplier&lt;/b&gt;&lt;/font&gt;&lt;/div&gt;" style="text;html=1;align=center;verticalAlign=middle;resizable=0;points=[];autosize=1;strokeColor=none;fillColor=none;fontSize=12;fontColor=default;fontFamily=Helvetica;" parent="Hr4rtZjNvh9kyPlDRhsV-2" vertex="1">
          <mxGeometry x="72.5" y="345" width="74" height="62" as="geometry" />
        </mxCell>
        <mxCell id="Hr4rtZjNvh9kyPlDRhsV-8" value="" style="shape=image;verticalLabelPosition=bottom;verticalAlign=top;imageAspect=0;aspect=fixed;image=data:image/svg+xml,PHN2ZyB4bWxucz0iaHR0cDovL3d3dy53My5vcmcvMjAwMC9zdmciIGZpbGw9Im5vbmUiIHZpZXdCb3g9IjAgMCAxNyAxNyIgaGVpZ2h0PSIxNyIgd2lkdGg9IjE3Ij4mI3hhOzxwYXRoIGZpbGw9InVybCgjcGFpbnQwX2xpbmVhcl8yXzI4Nzk5KSIgZD0iTTE0LjUyNjQgMi4xMTUyM0MxNC43NzY0IDIuMzIzNTcgMTQuOTc0MyAyLjU1MjczIDE1LjEyMDEgMi44MDI3M0MxNS4yNjYgMy4wMzE5IDE1LjMzODkgMy4zMTMxNSAxNS4zMzg5IDMuNjQ2NDhWMTMuMzM0QzE1LjMzODkgMTMuNjQ2NSAxNS4yNTU1IDEzLjkyNzcgMTUuMDg4OSAxNC4xNzc3QzE0LjkyMjIgMTQuNDI3NyAxNC43MzQ3IDE0LjY1NjkgMTQuNTI2NCAxNC44NjUyQzE0LjMzODkgMTUuMDMxOSAxNC4wOTkzIDE1LjE4ODIgMTMuODA3NiAxNS4zMzRDMTMuNTM2OCAxNS40Nzk4IDEzLjI0NTEgMTUuNjE1MiAxMi45MzI2IDE1Ljc0MDJDMTIuMjg2OCAxNS45OTAyIDExLjU0NzIgMTYuMTY3MyAxMC43MTM5IDE2LjI3MTVDOS45MDEzNyAxNi4zOTY1IDkuMDI2MzcgMTYuNDU5IDguMDg4ODcgMTYuNDU5QzcuMTUxMzcgMTYuNDU5IDYuMjY1OTUgMTYuMzk2NSA1LjQzMjYyIDE2LjI3MTVDNC42MjAxMiAxNi4xNjczIDMuODkwOTUgMTUuOTkwMiAzLjI0NTEyIDE1Ljc0MDJDMi45NTM0NSAxNS42MzYxIDIuNjYxNzggMTUuNTIxNSAyLjM3MDEyIDE1LjM5NjVDMi4wOTkyOCAxNS4yNTA3IDEuODU5NyAxNS4wNzM2IDEuNjUxMzcgMTQuODY1MkMxLjEwOTcgMTQuNDI3NyAwLjgzODg2NyAxMy45MTczIDAuODM4ODY3IDEzLjMzNFYzLjY0NjQ4QzAuODM4ODY3IDMuMzEzMTUgMC45MjIyMDEgMy4wMzE5IDEuMDg4ODcgMi44MDI3M0MxLjI1NTUzIDIuNTUyNzMgMS40NDMwMyAyLjMyMzU3IDEuNjUxMzcgMi4xMTUyM0MyLjA2ODAzIDEuNzYxMDcgMi41OTkyOCAxLjQ1ODk4IDMuMjQ1MTIgMS4yMDg5OEMzLjg5MDk1IDAuOTc5ODE4IDQuNjIwMTIgMC44MDI3MzQgNS40MzI2MiAwLjY3NzczNEM2LjI2NTk1IDAuNTUyNzM0IDcuMTUxMzcgMC40OTAyMzQgOC4wODg4NyAwLjQ5MDIzNEM5LjAyNjM3IDAuNDkwMjM0IDkuOTAxMzcgMC41NTI3MzQgMTAuNzEzOSAwLjY3NzczNEMxMS41NDcyIDAuODAyNzM0IDEyLjI4NjggMC45Nzk4MTggMTIuOTMyNiAxLjIwODk4QzEzLjI0NTEgMS4zMzM5OCAxMy41MzY4IDEuNDY5NCAxMy44MDc2IDEuNjE1MjNDMTQuMDk5MyAxLjc0MDIzIDE0LjMzODkgMS45MDY5IDE0LjUyNjQgMi4xMTUyM1pNMTMuNzQ1MSA4Ljk1ODk4QzEyLjc2NiA5LjI5MjMyIDExLjgzODkgOS41NTI3MyAxMC45NjM5IDkuNzQwMjNDMTAuMTA5NyA5LjkyNzczIDkuMTUxMzcgMTAuMDIxNSA4LjA4ODg3IDEwLjAyMTVDNy4xNTEzNyAxMC4wMjE1IDYuMjY1OTUgOS45NTg5OCA1LjQzMjYyIDkuODMzOThDNC42MjAxMiA5LjcwODk4IDMuODkwOTUgOS41MzE5IDMuMjQ1MTIgOS4zMDI3M0MyLjkxMTc4IDkuMTk4NTcgMi42NDA5NSA5LjA4Mzk4IDIuNDMyNjIgOC45NTg5OFYxMC4wODRDMi40NTM0NSAxMC4xMjU3IDIuNDc0MjggMTAuMTY3MyAyLjQ5NTEyIDEwLjIwOUMyLjUxNTk1IDEwLjI1MDcgMi41Nzg0NSAxMC4zMjM2IDIuNjgyNjIgMTAuNDI3N0MyLjk1MzQ1IDEwLjY3NzcgMy4zMTgwMyAxMC44ODYxIDMuNzc2MzcgMTEuMDUyN0M0LjI1NTUzIDExLjIxOTQgNC43NTU1MyAxMS4zNTQ4IDUuMjc2MzcgMTEuNDU5QzUuNzk3MiAxMS41NDIzIDYuMzA3NjIgMTEuNjA0OCA2LjgwNzYyIDExLjY0NjVDNy4zMjg0NSAxMS42ODgyIDcuNzU1NTMgMTEuNzA5IDguMDg4ODcgMTEuNzA5QzkuMDQ3MiAxMS43MDkgOS45ODQ3IDExLjYzNjEgMTAuOTAxNCAxMS40OTAyQzExLjgxOCAxMS4zMjM2IDEyLjY4MjYgMTAuOTY5NCAxMy40OTUxIDEwLjQyNzdDMTMuNjIwMSAxMC4zNDQ0IDEzLjY5MyAxMC4yNzE1IDEzLjcxMzkgMTAuMjA5QzEzLjczNDcgMTAuMTY3MyAxMy43NDUxIDEwLjEyNTcgMTMuNzQ1MSAxMC4wODRWOC45NTg5OFpNMTMuNzQ1MSA1Ljc0MDIzQzEyLjc2NiA2LjA3MzU3IDExLjgzODkgNi4zMzM5OCAxMC45NjM5IDYuNTIxNDhDMTAuMTA5NyA2LjcwODk4IDkuMTUxMzcgNi44MDI3MyA4LjA4ODg3IDYuODAyNzNDNy43NzYzNyA2LjgwMjczIDcuMzU5NyA2Ljc4MTkgNi44Mzg4NyA2Ljc0MDIzQzYuMzE4MDMgNi42OTg1NyA1Ljc3NjM3IDYuNjM2MDcgNS4yMTM4NyA2LjU1MjczQzQuNjUxMzcgNi40Njk0IDQuMTIwMTIgNi4zNjUyMyAzLjYyMDEyIDYuMjQwMjNDMy4xMjAxMiA2LjA5NDQgMi43MjQyOCA1LjkyNzczIDIuNDMyNjIgNS43NDAyM1Y2Ljg2NTIzQzIuNDMyNjIgNi44ODYwNyAyLjQ0MzAzIDYuOTE3MzIgMi40NjM4NyA2Ljk1ODk4QzIuNTA1NTMgNi45Nzk4MiAyLjUzNjc4IDcuMDExMDcgMi41NTc2MiA3LjA1MjczQzIuNTk5MjggNy4wOTQ0IDIuNjQwOTUgNy4xMzYwNyAyLjY4MjYyIDcuMTc3NzNDMi45NTM0NSA3LjQ0ODU3IDMuMzE4MDMgNy42NjczMiAzLjc3NjM3IDcuODMzOThDNC4yNTU1MyA4LjAwMDY1IDQuNzU1NTMgOC4xMzYwNyA1LjI3NjM3IDguMjQwMjNDNS43OTcyIDguMzIzNTcgNi4zMDc2MiA4LjM4NjA3IDYuODA3NjIgOC40Mjc3M0M3LjMyODQ1IDguNDY5NCA3Ljc1NTUzIDguNDkwMjMgOC4wODg4NyA4LjQ5MDIzQzkuMDQ3MiA4LjQ5MDIzIDkuOTg0NyA4LjQwNjkgMTAuOTAxNCA4LjI0MDIzQzExLjgxOCA4LjA3MzU3IDEyLjY4MjYgNy43MTk0IDEzLjQ5NTEgNy4xNzc3M0MxMy42MjAxIDcuMDk0NCAxMy42OTMgNy4wMjE0OCAxMy43MTM5IDYuOTU4OThDMTMuNzM0NyA2LjkxNzMyIDEzLjc0NTEgNi44ODYwNyAxMy43NDUxIDYuODY1MjNWNS43NDAyM1pNMi42ODI2MiAzLjMzMzk4QzIuNTc4NDUgMy4zNzU2NSAyLjUwNTUzIDMuNDQ4NTcgMi40NjM4NyAzLjU1MjczQzIuNDQzMDMgMy41OTQ0IDIuNDMyNjIgMy42MjU2NSAyLjQzMjYyIDMuNjQ2NDhDMi40MzI2MiAzLjY2NzMyIDIuNDQzMDMgMy42OTg1NyAyLjQ2Mzg3IDMuNzQwMjNDMi41MDU1MyAzLjc2MTA3IDIuNTM2NzggMy43OTIzMiAyLjU1NzYyIDMuODMzOThDMi41OTkyOCAzLjg3NTY1IDIuNjQwOTUgMy45MTczMiAyLjY4MjYyIDMuOTU4OThDMi45NTM0NSA0LjIyOTgyIDMuMzE4MDMgNC40NDg1NyAzLjc3NjM3IDQuNjE1MjNDNC4yNTU1MyA0Ljc4MTkgNC43NTU1MyA0LjkxNzMyIDUuMjc2MzcgNS4wMjE0OEM1Ljc5NzIgNS4xMDQ4MiA2LjMwNzYyIDUuMTY3MzIgNi44MDc2MiA1LjIwODk4QzcuMzI4NDUgNS4yNTA2NSA3Ljc1NTUzIDUuMjcxNDggOC4wODg4NyA1LjI3MTQ4QzguOTQzMDMgNS4yNzE0OCA5LjczNDcgNS4yMTk0IDEwLjQ2MzkgNS4xMTUyM0MxMS4xOTMgNC45OTAyMyAxMS44Mjg1IDQuODIzNTcgMTIuMzcwMSA0LjYxNTIzTDEzLjQ5NTEgMy45NTg5OEMxMy42MjAxIDMuODc1NjUgMTMuNjkzIDMuODAyNzMgMTMuNzEzOSAzLjc0MDIzQzEzLjczNDcgMy42OTg1NyAxMy43NDUxIDMuNjY3MzIgMTMuNzQ1MSAzLjY0NjQ4QzEzLjcyNDMgMy42MjU2NSAxMy43MDM1IDMuNTk0NCAxMy42ODI2IDMuNTUyNzNDMTMuNjYxOCAzLjUxMTA3IDEzLjU5OTMgMy40MzgxNSAxMy40OTUxIDMuMzMzOThDMTMuMjI0MyAzLjA2MzE1IDEyLjg0OTMgMi44NDQ0IDEyLjM3MDEgMi42Nzc3M0MxMS45MTE4IDIuNTExMDcgMTEuNDIyMiAyLjM4NjA3IDEwLjkwMTQgMi4zMDI3M0MxMC4zODA1IDIuMTk4NTcgOS44NTk3IDIuMTI1NjUgOS4zMzg4NyAyLjA4Mzk4QzguODM4ODcgMi4wNDIzMiA4LjQyMjIgMi4wMjE0OCA4LjA4ODg3IDIuMDIxNDhDNy4xMzA1MyAyLjAyMTQ4IDYuMTkzMDMgMi4xMDQ4MiA1LjI3NjM3IDIuMjcxNDhDNC4zNTk3IDIuNDM4MTUgMy40OTUxMiAyLjc5MjMyIDIuNjgyNjIgMy4zMzM5OFpNMTMuNDk1MSAxMy42NDY1QzEzLjYyMDEgMTMuNTYzMiAxMy42OTMgMTMuNDkwMiAxMy43MTM5IDEzLjQyNzdDMTMuNzM0NyAxMy4zODYxIDEzLjc0NTEgMTMuMzU0OCAxMy43NDUxIDEzLjMzNFYxMi4xNzc3QzEzLjcyNDMgMTIuMTk4NiAxMy43MDM1IDEyLjIwOSAxMy42ODI2IDEyLjIwOUMxMy42NjE4IDEyLjIwOSAxMy42NTE0IDEyLjIxOTQgMTMuNjUxNCAxMi4yNDAySDEzLjU4ODlDMTMuNTQ3MiAxMi4yNjExIDEzLjUyNjQgMTIuMjcxNSAxMy41MjY0IDEyLjI3MTVDMTMuNTA1NSAxMi4yOTIzIDEzLjQ4NDcgMTIuMzAyNyAxMy40NjM5IDEyLjMwMjdDMTIuNTI2NCAxMi42NTY5IDExLjY0MSAxMi45MDY5IDEwLjgwNzYgMTMuMDUyN0M5Ljk5NTEyIDEzLjE3NzcgOS4wODg4NyAxMy4yNDAyIDguMDg4ODcgMTMuMjQwMkM3Ljc3NjM3IDEzLjI0MDIgNy4zNTk3IDEzLjIxOTQgNi44Mzg4NyAxMy4xNzc3QzYuMzE4MDMgMTMuMTM2MSA1Ljc3NjM3IDEzLjA3MzYgNS4yMTM4NyAxMi45OTAyQzQuNjUxMzcgMTIuOTA2OSA0LjEyMDEyIDEyLjgwMjcgMy42MjAxMiAxMi42Nzc3QzMuMTIwMTIgMTIuNTMxOSAyLjcyNDI4IDEyLjM2NTIgMi40MzI2MiAxMi4xNzc3VjEzLjMzNEMyLjQzMjYyIDEzLjM1NDggMi40NDMwMyAxMy4zODYxIDIuNDYzODcgMTMuNDI3N0MyLjQ4NDcgMTMuNDkwMiAyLjU1NzYyIDEzLjU2MzIgMi42ODI2MiAxMy42NDY1QzIuOTUzNDUgMTMuOTE3MyAzLjMxODAzIDE0LjEzNjEgMy43NzYzNyAxNC4zMDI3QzQuMjU1NTMgMTQuNDY5NCA0Ljc1NTUzIDE0LjYwNDggNS4yNzYzNyAxNC43MDlDNS43OTcyIDE0Ljc5MjMgNi4zMDc2MiAxNC44NTQ4IDYuODA3NjIgMTQuODk2NUM3LjMyODQ1IDE0LjkxNzMgNy43NTU1MyAxNC45Mjc3IDguMDg4ODcgMTQuOTI3N0M5LjA0NzIgMTQuOTI3NyA5Ljk4NDcgMTQuODU0OCAxMC45MDE0IDE0LjcwOUMxMS44MTggMTQuNTQyMyAxMi42ODI2IDE0LjE4ODIgMTMuNDk1MSAxMy42NDY1WiIvPiYjeGE7PGRlZnM+JiN4YTs8bGluZWFyR3JhZGllbnQgZ3JhZGllbnRVbml0cz0idXNlclNwYWNlT25Vc2UiIHkyPSIxNi40NTkiIHgyPSI4LjA4ODg3IiB5MT0iMC40OTAyMzQiIHgxPSI4LjA4ODg3IiBpZD0icGFpbnQwX2xpbmVhcl8yXzI4Nzk5Ij4mI3hhOzxzdG9wIHN0b3AtY29sb3I9IiM1QjczOEIiLz4mI3hhOzxzdG9wIHN0b3AtY29sb3I9IiMyMjM1NDgiIG9mZnNldD0iMSIvPiYjeGE7PC9saW5lYXJHcmFkaWVudD4mI3hhOzwvZGVmcz4mI3hhOzwvc3ZnPg==" parent="Hr4rtZjNvh9kyPlDRhsV-2" vertex="1">
          <mxGeometry x="85.5" y="123" width="48" height="48" as="geometry" />
        </mxCell>
        <mxCell id="Hr4rtZjNvh9kyPlDRhsV-9" value="&lt;b&gt;S/4 HANA&lt;/b&gt;&lt;div&gt;&lt;b&gt;Private Cloud&lt;/b&gt;&lt;/div&gt;" style="rounded=1;whiteSpace=wrap;html=1;strokeColor=light-dark(#475e75, #ba98ff);fillColor=#FFFFFF;arcSize=24;absoluteArcSize=1;imageWidth=64;imageHeight=64;strokeWidth=1.5;" parent="1" vertex="1">
          <mxGeometry x="276" y="435.5" width="160" height="164" as="geometry" />
        </mxCell>
        <mxCell id="Hr4rtZjNvh9kyPlDRhsV-10" value="Azure Cloud" style="text;strokeColor=none;fillColor=none;html=1;align=center;verticalAlign=middle;whiteSpace=wrap;rounded=0;fontSize=17;" parent="1" vertex="1">
          <mxGeometry x="272.5" y="395" width="157" height="30" as="geometry" />
        </mxCell>
        <mxCell id="Hr4rtZjNvh9kyPlDRhsV-11" value="&lt;b&gt;FRoSTA&lt;/b&gt;&lt;div&gt;Azure Platform&lt;/div&gt;" style="rounded=1;whiteSpace=wrap;html=1;strokeColor=light-dark(#475e75, #ba98ff);fillColor=#FFFFFF;arcSize=24;absoluteArcSize=1;imageWidth=64;imageHeight=64;strokeWidth=1.5;" parent="1" vertex="1">
          <mxGeometry x="271" y="652" width="160" height="74" as="geometry" />
        </mxCell>
        <mxCell id="Hr4rtZjNvh9kyPlDRhsV-12" value="" style="endArrow=none;html=1;strokeColor=light-dark(#d20909, #ba98ff);bendable=1;rounded=0;endFill=0;endSize=4;startArrow=none;startFill=0;startSize=4;jumpStyle=none;jumpSize=0;targetPerimeterSpacing=15;dashed=1;strokeWidth=1.5;fontSize=16;" parent="1" edge="1">
          <mxGeometry width="50" height="50" relative="1" as="geometry">
            <mxPoint x="291" y="625.94" as="sourcePoint" />
            <mxPoint x="411" y="625.94" as="targetPoint" />
          </mxGeometry>
        </mxCell>
        <mxCell id="Hr4rtZjNvh9kyPlDRhsV-13" value="" style="endArrow=openThin;html=1;strokeColor=#475E75;bendable=1;rounded=0;endFill=0;endSize=4;strokeWidth=1.5;exitX=0.5;exitY=0;exitDx=0;exitDy=0;startSize=4;fontSize=16;sourcePerimeterSpacing=8;targetPerimeterSpacing=8;curved=1;entryX=0.5;entryY=1;entryDx=0;entryDy=0;startArrow=classicThin;startFill=1;" parent="1" target="Hr4rtZjNvh9kyPlDRhsV-3" edge="1">
          <mxGeometry width="50" height="50" relative="1" as="geometry">
            <mxPoint x="1269.5" y="664" as="sourcePoint" />
            <mxPoint x="1358" y="894" as="targetPoint" />
            <Array as="points" />
          </mxGeometry>
        </mxCell>
        <mxCell id="Hr4rtZjNvh9kyPlDRhsV-14" value="" style="endArrow=blockThin;html=1;strokeColor=#d20a0a;bendable=1;rounded=0;endFill=1;endSize=4;edgeStyle=orthogonalEdgeStyle;startArrow=none;startFill=0;startSize=4;jumpStyle=none;jumpSize=0;targetPerimeterSpacing=15;strokeWidth=1.5;fontSize=16;entryX=0;entryY=0.5;entryDx=0;entryDy=0;exitX=0;exitY=0.5;exitDx=0;exitDy=0;dashed=1;" parent="1" source="Hr4rtZjNvh9kyPlDRhsV-16" target="Hr4rtZjNvh9kyPlDRhsV-11" edge="1">
          <mxGeometry width="50" height="50" relative="1" as="geometry">
            <mxPoint x="903" y="514" as="sourcePoint" />
            <mxPoint x="1023" y="514" as="targetPoint" />
            <Array as="points">
              <mxPoint x="854" y="340" />
              <mxPoint x="199" y="340" />
              <mxPoint x="199" y="689" />
            </Array>
          </mxGeometry>
        </mxCell>
        <mxCell id="Hr4rtZjNvh9kyPlDRhsV-15" value="" style="endArrow=none;html=1;strokeColor=#d20a0a;bendable=1;rounded=0;endFill=0;endSize=4;edgeStyle=orthogonalEdgeStyle;startArrow=none;startFill=0;startSize=4;jumpStyle=none;jumpSize=0;targetPerimeterSpacing=15;strokeWidth=1.5;fontSize=16;entryX=1;entryY=0.5;entryDx=0;entryDy=0;exitX=0.5;exitY=0;exitDx=0;exitDy=0;dashed=1;" parent="1" source="Hr4rtZjNvh9kyPlDRhsV-3" target="Hr4rtZjNvh9kyPlDRhsV-16" edge="1">
          <mxGeometry width="50" height="50" relative="1" as="geometry">
            <mxPoint x="1270" y="365" as="sourcePoint" />
            <mxPoint x="423" y="480" as="targetPoint" />
            <Array as="points">
              <mxPoint x="1270" y="337" />
            </Array>
          </mxGeometry>
        </mxCell>
        <mxCell id="Hr4rtZjNvh9kyPlDRhsV-16" value="&lt;font size=&quot;1&quot;&gt;&lt;b&gt;SAML/SSO&lt;/b&gt;&lt;/font&gt;" style="rounded=1;whiteSpace=wrap;html=1;arcSize=50;strokeColor=#de5353;fillColor=default;strokeWidth=1.5;fontColor=#de5353;" parent="1" vertex="1">
          <mxGeometry x="854" y="330" width="57" height="16" as="geometry" />
        </mxCell>
        <mxCell id="Hr4rtZjNvh9kyPlDRhsV-17" value="" style="edgeStyle=orthogonalEdgeStyle;rounded=0;orthogonalLoop=1;jettySize=auto;html=1;fontSize=18;strokeColor=#475E75;fontFamily=Helvetica;fontColor=default;targetPerimeterSpacing=15;endSize=4;startSize=4;endArrow=none;endFill=0;strokeWidth=1.5;startArrow=classicThin;startFill=1;curved=0;exitX=0;exitY=0.5;exitDx=0;exitDy=0;entryX=1;entryY=0.5;entryDx=0;entryDy=0;" parent="1" source="Hr4rtZjNvh9kyPlDRhsV-3" target="Hr4rtZjNvh9kyPlDRhsV-47" edge="1">
          <mxGeometry relative="1" as="geometry">
            <mxPoint x="866" y="720" as="targetPoint" />
            <mxPoint x="1160" y="530" as="sourcePoint" />
            <Array as="points" />
          </mxGeometry>
        </mxCell>
        <mxCell id="Hr4rtZjNvh9kyPlDRhsV-18" style="rounded=0;orthogonalLoop=1;jettySize=auto;html=1;fontSize=18;strokeColor=#475E75;fontFamily=Helvetica;fontColor=default;targetPerimeterSpacing=15;endSize=4;startSize=4;endArrow=none;endFill=1;strokeWidth=1.5;startArrow=none;startFill=0;exitX=0;exitY=0.5;exitDx=0;exitDy=0;entryX=1;entryY=0.5;entryDx=0;entryDy=0;" parent="1" source="Hr4rtZjNvh9kyPlDRhsV-19" target="Hr4rtZjNvh9kyPlDRhsV-9" edge="1">
          <mxGeometry relative="1" as="geometry">
            <mxPoint x="423" y="752" as="targetPoint" />
            <mxPoint x="595" y="805" as="sourcePoint" />
          </mxGeometry>
        </mxCell>
        <mxCell id="Hr4rtZjNvh9kyPlDRhsV-19" value="&lt;font color=&quot;#475f75&quot; size=&quot;1&quot;&gt;&lt;b style=&quot;&quot;&gt;MQTT&lt;/b&gt;&lt;/font&gt;" style="rounded=1;whiteSpace=wrap;html=1;arcSize=50;strokeColor=#475f75;fillColor=default;strokeWidth=1.5;" parent="1" vertex="1">
          <mxGeometry x="525" y="509.5" width="57" height="16" as="geometry" />
        </mxCell>
        <mxCell id="Hr4rtZjNvh9kyPlDRhsV-20" style="rounded=0;orthogonalLoop=1;jettySize=auto;html=1;fontSize=18;strokeColor=#475E75;fontFamily=Helvetica;fontColor=default;targetPerimeterSpacing=15;endSize=4;startSize=4;endArrow=openThin;endFill=0;strokeWidth=1.5;startArrow=none;startFill=0;exitX=0;exitY=0.5;exitDx=0;exitDy=0;entryX=1;entryY=0.25;entryDx=0;entryDy=0;" parent="1" source="Hr4rtZjNvh9kyPlDRhsV-21" target="Hr4rtZjNvh9kyPlDRhsV-9" edge="1">
          <mxGeometry relative="1" as="geometry">
            <mxPoint x="762" y="593" as="targetPoint" />
            <mxPoint x="545" y="663" as="sourcePoint" />
          </mxGeometry>
        </mxCell>
        <mxCell id="Hr4rtZjNvh9kyPlDRhsV-21" value="&lt;font color=&quot;#475f75&quot; size=&quot;1&quot;&gt;&lt;b style=&quot;&quot;&gt;ODATA&lt;/b&gt;&lt;/font&gt;" style="rounded=1;whiteSpace=wrap;html=1;arcSize=50;strokeColor=#475f75;fillColor=default;strokeWidth=1.5;" parent="1" vertex="1">
          <mxGeometry x="525" y="467.5" width="57" height="16" as="geometry" />
        </mxCell>
        <mxCell id="Hr4rtZjNvh9kyPlDRhsV-22" style="edgeStyle=orthogonalEdgeStyle;rounded=0;orthogonalLoop=1;jettySize=auto;html=1;fontSize=18;strokeColor=#475E75;fontFamily=Helvetica;fontColor=default;targetPerimeterSpacing=15;endSize=4;startSize=4;endArrow=classicThin;endFill=1;strokeWidth=1.5;startArrow=none;startFill=0;curved=0;exitX=1;exitY=0.5;exitDx=0;exitDy=0;entryX=0;entryY=0.25;entryDx=0;entryDy=0;" parent="1" source="Hr4rtZjNvh9kyPlDRhsV-43" target="Hr4rtZjNvh9kyPlDRhsV-3" edge="1">
          <mxGeometry relative="1" as="geometry">
            <mxPoint x="1017" y="889" as="targetPoint" />
            <mxPoint x="687" y="891" as="sourcePoint" />
            <Array as="points">
              <mxPoint x="1143" y="420" />
              <mxPoint x="1143" y="420" />
            </Array>
          </mxGeometry>
        </mxCell>
        <mxCell id="Hr4rtZjNvh9kyPlDRhsV-23" value="" style="endArrow=none;html=1;strokeColor=light-dark(#d20909, #ba98ff);bendable=1;rounded=0;endFill=0;endSize=4;startArrow=none;startFill=0;startSize=4;jumpStyle=none;jumpSize=0;targetPerimeterSpacing=15;dashed=1;strokeWidth=1.5;fontSize=16;" parent="1" source="Hr4rtZjNvh9kyPlDRhsV-59" edge="1">
          <mxGeometry width="50" height="50" relative="1" as="geometry">
            <mxPoint x="494" y="828" as="sourcePoint" />
            <mxPoint x="494" y="661" as="targetPoint" />
          </mxGeometry>
        </mxCell>
        <mxCell id="Hr4rtZjNvh9kyPlDRhsV-24" style="rounded=0;orthogonalLoop=1;jettySize=auto;html=1;fontSize=18;strokeColor=#475E75;fontFamily=Helvetica;fontColor=default;targetPerimeterSpacing=15;endSize=4;startSize=4;endArrow=openThin;endFill=0;strokeWidth=1.5;startArrow=none;startFill=0;exitX=0;exitY=0.5;exitDx=0;exitDy=0;entryX=1;entryY=0.75;entryDx=0;entryDy=0;" parent="1" source="Hr4rtZjNvh9kyPlDRhsV-25" target="Hr4rtZjNvh9kyPlDRhsV-9" edge="1">
          <mxGeometry relative="1" as="geometry">
            <mxPoint x="430" y="751" as="targetPoint" />
            <mxPoint x="599.5" y="859" as="sourcePoint" />
          </mxGeometry>
        </mxCell>
        <mxCell id="Hr4rtZjNvh9kyPlDRhsV-25" value="&lt;font color=&quot;#475f75&quot; size=&quot;1&quot;&gt;&lt;b style=&quot;&quot;&gt;ODATA&lt;/b&gt;&lt;/font&gt;" style="rounded=1;whiteSpace=wrap;html=1;arcSize=50;strokeColor=#475f75;fillColor=default;strokeWidth=1.5;" parent="1" vertex="1">
          <mxGeometry x="525" y="550.5" width="57" height="16" as="geometry" />
        </mxCell>
        <mxCell id="Hr4rtZjNvh9kyPlDRhsV-26" style="edgeStyle=orthogonalEdgeStyle;rounded=0;orthogonalLoop=1;jettySize=auto;html=1;exitX=0.5;exitY=1;exitDx=0;exitDy=0;entryX=0.5;entryY=0;entryDx=0;entryDy=0;strokeWidth=1.5;strokeColor=light-dark(#475e75, #ededed);endArrow=blockThin;endFill=1;endSize=4;startSize=4;" parent="1" source="Hr4rtZjNvh9kyPlDRhsV-27" target="Hr4rtZjNvh9kyPlDRhsV-28" edge="1">
          <mxGeometry relative="1" as="geometry" />
        </mxCell>
        <mxCell id="Hr4rtZjNvh9kyPlDRhsV-27" value="&lt;div&gt;&lt;b&gt;Prostore&lt;/b&gt;&lt;/div&gt;&lt;div&gt;Warehouse&lt;/div&gt;" style="rounded=1;whiteSpace=wrap;html=1;strokeColor=light-dark(#475e75, #ba98ff);fillColor=#FFFFFF;arcSize=24;absoluteArcSize=1;imageWidth=64;imageHeight=64;strokeWidth=1.5;" parent="1" vertex="1">
          <mxGeometry x="272.5" y="750" width="160" height="88" as="geometry" />
        </mxCell>
        <mxCell id="Hr4rtZjNvh9kyPlDRhsV-28" value="&lt;div&gt;&lt;b&gt;SFTP Server&lt;/b&gt;&lt;/div&gt;" style="rounded=1;whiteSpace=wrap;html=1;strokeColor=light-dark(#475e75, #ba98ff);fillColor=#FFFFFF;arcSize=24;absoluteArcSize=1;imageWidth=64;imageHeight=64;strokeWidth=1.5;" parent="1" vertex="1">
          <mxGeometry x="272.5" y="891" width="160" height="36" as="geometry" />
        </mxCell>
        <mxCell id="Hr4rtZjNvh9kyPlDRhsV-29" value="&lt;font color=&quot;#475f75&quot; size=&quot;1&quot;&gt;&lt;b style=&quot;&quot;&gt;SFTP&lt;/b&gt;&lt;/font&gt;" style="rounded=1;whiteSpace=wrap;html=1;arcSize=50;strokeColor=#475f75;fillColor=default;strokeWidth=1.5;" parent="1" vertex="1">
          <mxGeometry x="322.5" y="851" width="57" height="16" as="geometry" />
        </mxCell>
        <mxCell id="Hr4rtZjNvh9kyPlDRhsV-30" value="&lt;font color=&quot;#475f75&quot; size=&quot;1&quot;&gt;&lt;b style=&quot;&quot;&gt;SFTP&lt;/b&gt;&lt;/font&gt;" style="rounded=1;whiteSpace=wrap;html=1;arcSize=50;strokeColor=#475f75;fillColor=default;strokeWidth=1.5;" parent="1" vertex="1">
          <mxGeometry x="1080" y="522" width="57" height="16" as="geometry" />
        </mxCell>
        <mxCell id="Hr4rtZjNvh9kyPlDRhsV-31" value="" style="edgeStyle=orthogonalEdgeStyle;rounded=0;orthogonalLoop=1;jettySize=auto;html=1;exitX=1;exitY=0.5;exitDx=0;exitDy=0;entryX=0;entryY=0.75;entryDx=0;entryDy=0;strokeWidth=1.5;strokeColor=light-dark(#475e75, #ededed);endArrow=blockThin;endFill=1;endSize=4;startSize=4;" parent="1" source="Hr4rtZjNvh9kyPlDRhsV-30" target="Hr4rtZjNvh9kyPlDRhsV-3" edge="1">
          <mxGeometry relative="1" as="geometry">
            <mxPoint x="873" y="812" as="sourcePoint" />
            <mxPoint x="1090" y="540" as="targetPoint" />
            <Array as="points">
              <mxPoint x="1148" y="530" />
              <mxPoint x="1148" y="530" />
            </Array>
          </mxGeometry>
        </mxCell>
        <mxCell id="Hr4rtZjNvh9kyPlDRhsV-32" value="d" style="group;arcSize=24;" parent="1" vertex="1" connectable="0">
          <mxGeometry x="699" y="991" width="252" height="143" as="geometry" />
        </mxCell>
        <mxCell id="Hr4rtZjNvh9kyPlDRhsV-33" value="" style="rounded=1;whiteSpace=wrap;html=1;strokeColor=#0070F2;fillColor=#EBF8FF;arcSize=24;absoluteArcSize=1;imageWidth=64;imageHeight=64;strokeWidth=1.5;" parent="Hr4rtZjNvh9kyPlDRhsV-32" vertex="1">
          <mxGeometry width="240.21" height="143" as="geometry" />
        </mxCell>
        <mxCell id="Hr4rtZjNvh9kyPlDRhsV-34" value="&lt;div style=&quot;&quot;&gt;&lt;font face=&quot;arial&quot;&gt;&lt;span style=&quot;font-size: 14px;&quot;&gt;&lt;b&gt;Public Cloud&lt;/b&gt;&lt;/span&gt;&lt;/font&gt;&lt;/div&gt;" style="text;html=1;align=left;verticalAlign=middle;resizable=0;points=[];autosize=1;strokeColor=none;fillColor=none;fontSize=12;fontColor=#1d2d3e;fontFamily=Helvetica;" parent="Hr4rtZjNvh9kyPlDRhsV-32" vertex="1">
          <mxGeometry x="68" y="18.00188824662813" width="104" height="29" as="geometry" />
        </mxCell>
        <mxCell id="Hr4rtZjNvh9kyPlDRhsV-35" value="SAP Cloud ALM" style="rounded=1;whiteSpace=wrap;html=1;strokeColor=#0070F2;strokeWidth=1.5;arcSize=16;fillColor=#ffffff;perimeterSpacing=0;absoluteArcSize=1;" parent="Hr4rtZjNvh9kyPlDRhsV-32" vertex="1">
          <mxGeometry x="20" y="70" width="191" height="53" as="geometry" />
        </mxCell>
        <mxCell id="Hr4rtZjNvh9kyPlDRhsV-36" value="" style="image;image=img/lib/sap/SAP_Logo.svg;editableCssRules=.*;verticalLabelPosition=middle;labelBackgroundColor=none;verticalAlign=middle;imageAspect=0;labelPosition=right;align=left;fontSize=16;fontStyle=1;spacingLeft=0;fontColor=#002A86;spacing=0;" parent="Hr4rtZjNvh9kyPlDRhsV-32" vertex="1">
          <mxGeometry x="9" y="14" width="51" height="27" as="geometry" />
        </mxCell>
        <mxCell id="Hr4rtZjNvh9kyPlDRhsV-37" value="" style="verticalLabelPosition=bottom;html=1;verticalAlign=top;align=center;strokeColor=none;fillColor=#00BEF2;shape=mxgraph.azure.azure_instance;" parent="1" vertex="1">
          <mxGeometry x="429.5" y="388" width="32" height="37" as="geometry" />
        </mxCell>
        <mxCell id="Hr4rtZjNvh9kyPlDRhsV-38" value="" style="group;arcSize=24;" parent="1" vertex="1" connectable="0">
          <mxGeometry x="693" y="367" width="252" height="519" as="geometry" />
        </mxCell>
        <mxCell id="Hr4rtZjNvh9kyPlDRhsV-39" value="" style="rounded=1;whiteSpace=wrap;html=1;strokeColor=#0070F2;fillColor=#EBF8FF;arcSize=24;absoluteArcSize=1;imageWidth=64;imageHeight=64;strokeWidth=1.5;" parent="Hr4rtZjNvh9kyPlDRhsV-38" vertex="1">
          <mxGeometry width="240.21" height="519" as="geometry" />
        </mxCell>
        <mxCell id="Hr4rtZjNvh9kyPlDRhsV-40" value="" style="shape=image;verticalLabelPosition=bottom;labelBackgroundColor=default;verticalAlign=top;aspect=fixed;imageAspect=0;image=data:image/svg+xml,PHN2ZyB4bWxuczp4bGluaz0iaHR0cDovL3d3dy53My5vcmcvMTk5OS94bGluayIgeG1sbnM9Imh0dHA6Ly93d3cudzMub3JnLzIwMDAvc3ZnIiB2aWV3Qm94PSIwIDAgMTQ0Ljc0NyAzOS44MzIiIGlkPSJhIj48ZGVmcz48bGluZWFyR3JhZGllbnQgZ3JhZGllbnRVbml0cz0idXNlclNwYWNlT25Vc2UiIHkyPSIzOS44MzIiIHgyPSI0MC4yNTgiIHkxPSIwIiB4MT0iNDAuMjU4IiBpZD0iYiI+PHN0b3Agc3RvcC1jb2xvcj0iIzAwYjhmMSIgb2Zmc2V0PSIwIi8+PHN0b3Agc3RvcC1jb2xvcj0iIzAwYjVlZiIgb2Zmc2V0PSIuMDE2Ii8+PHN0b3Agc3RvcC1jb2xvcj0iIzBkOTBkOCIgb2Zmc2V0PSIuMzA4Ii8+PHN0b3Agc3RvcC1jb2xvcj0iIzE2NzVjOCIgb2Zmc2V0PSIuNTc4Ii8+PHN0b3Agc3RvcC1jb2xvcj0iIzFjNjRiZSIgb2Zmc2V0PSIuODE3Ii8+PHN0b3Agc3RvcC1jb2xvcj0iIzFlNWZiYiIgb2Zmc2V0PSIxIi8+PC9saW5lYXJHcmFkaWVudD48L2RlZnM+PHBvbHlsaW5lIGZpbGwtcnVsZT0iZXZlbm9kZCIgZmlsbD0idXJsKCNiKSIgcG9pbnRzPSIwIDM5LjgzMiA0MC42OTIgMzkuODMyIDgwLjUxNyAwIDAgMCAwIDM5LjgzMiIvPjxwYXRoIGZpbGwtcnVsZT0iZXZlbm9kZCIgZmlsbD0iI2ZmZiIgZD0ibTQ3Ljc4Miw3LjQ4OWwtNy45MjUtLjAwNXYxOC44NDVsLTYuOTI0LTE4Ljg0NWgtNi44NjVsLTUuOTEyLDE1Ljc1OWMtLjYzLTMuOTczLTQuNzQtNS4zNDUtNy45NzQtNi4zNzQtMi4xMzUtLjY4Ni00LjQwMS0xLjY5NC00LjM4LTIuODA5LjAxNy0uOTE1LDEuMjE1LTEuNzY1LDMuNTg5LTEuNjM3LDEuNTk1LjA4NCwzLjAwMS4yMTMsNS44LDEuNTYzbDIuNzUzLTQuNzk1Yy0yLjU1NS0xLjMtNi4wODYtMi4xMjEtOC45NzgtMi4xMjRoLS4wMTdjLTMuMzc0LDAtNi4xODUsMS4wOTMtNy45MjgsMi44OTQtMS4yMTQsMS4yNTgtMS44NjksMi44NTYtMS44OTYsNC42MjMtLjA0NCwyLjQzMi44NDgsNC4xNTcsMi43MjEsNS41MzMsMS41ODMsMS4xNiwzLjYwNiwxLjkxMiw1LjM5LDIuNDY1LDIuMjAxLjY4MSwzLjk5NiwxLjI3NCwzLjk3NSwyLjUzOS0uMDE2LjQ1OS0uMTkxLjg4OC0uNTIxLDEuMjM2LS41NDguNTY2LTEuMzkxLjc3OS0yLjU1NS43OTktMi4yNDQuMDQ4LTMuOTEtLjMwMy02LjU2Mi0xLjg3bC0yLjQ0OCw0Ljg2MWMyLjY0NCwxLjUwNiw1Ljc3NiwyLjM4OCw4Ljk3MiwyLjM4OGwuNDExLS4wMDZjMi43ODItLjA1LDUuMDI2LS44NDIsNi44Mi0yLjI4Ni4xMDMtLjA4MS4xOTYtLjE2Ni4yOTEtLjI1bC0uNzk1LDIuMTIzaDcuMmwxLjIwOC0zLjY3NGMxLjI2NS40MzMsMi43MDQuNjcxLDQuMjMyLjY3MSwxLjQ4NywwLDIuODg5LS4yMjksNC4xMzEtLjYzNWwxLjE2NCwzLjYzN2gxMS43NDJ2LTcuNjA3aDIuNTYxYzYuMTg4LDAsOS44NTEtMy4xNTQsOS44NTEtOC40MzYsMC01Ljg4NS0zLjU1Ny04LjU4NS0xMS4xMzItOC41ODVabS0xOC4zMTcsMTYuMTI0Yy0uOTI1LDAtMS43OTItLjE2LTIuNTM5LS40NDNsMi41MTItNy45MjZoLjA0OGwyLjQ2OCw3Ljk0OGMtLjc0Mi4yNjMtMS41ODkuNDIxLTIuNDg4LjQyMVptMTguNzgzLTQuNTUzaC0xLjc0NnYtNi4zODZoMS43NDZjMi4zMjgsMCw0LjE4NS43NzMsNC4xODUsMy4xNTEsMCwyLjQ2MS0xLjg1NywzLjIzNi00LjE4NSwzLjIzNiIvPjxwYXRoIGZpbGw9IiMwMDJhODYiIGQ9Im04MC4yMTcsNy40MDFoMTAuMDYzYzUuNTk1LDAsOC42NzQsMS45MTcsOC42NzQsNi4xNTgsMCwyLjkwMy0xLjUxMyw1LjAxNC00LjMxMSw1LjcsMy4yOS40NTgsNS4yNzgsMi41ODYsNS4yNzgsNS44OTQsMCw1LjAxNC00LjA2NCw3LjAzNy05LjE4NCw3LjAzN2gtMTAuNTIxVjcuNDAxWm0xMy45NjksNi44MjZjMC0yLjE2NC0xLjQ5Ni0yLjk3My00LjI0LTIuOTczaC01LjA0OXY2LjI5OGg0Ljg5MWMzLjIwMiwwLDQuMzk4LTEuMTYxLDQuMzk4LTMuMzI1Wm0xLjAyMSwxMC41MjFjMC0yLjM1Ny0xLjc3Ny0zLjQ2Ni00LjgzOS0zLjQ2NmgtNS40NzF2Ny4wNTVoNS41MDZjMi44MTUsMCw0LjgwNC0uNzc0LDQuODA0LTMuNTg5WiIvPjxwYXRoIGZpbGw9IiMwMDJhODYiIGQ9Im0xMDkuMDUxLDExLjVoLTcuNTgzdi00LjA5OWgxOS44NDZ2NC4wOTloLTcuNTY1djIwLjY5aC00LjY5N1YxMS41WiIvPjxwYXRoIGZpbGw9IiMwMDJhODYiIGQ9Im0xMjUuMTQ4LDcuNDAxaDEwLjUwNGM2LjE5MiwwLDkuMDk2LDMuMTg1LDkuMDk2LDcuODk5LDAsNC4zOTgtMi44MzMsOC4xNDYtOC44NSw4LjE0NmgtNi4wN3Y4Ljc0NGgtNC42OFY3LjQwMVptMTQuOTAyLDcuOTUyYzAtMi41NTEtMS42ODktMy45MjMtNC45NDQtMy45MjNoLTUuMjc4djguMDRoNS40MTljMy4yNzIsMCw0LjgwNC0xLjU4Myw0LjgwNC00LjExN1oiLz48L3N2Zz4=;strokeWidth=1.5;" parent="Hr4rtZjNvh9kyPlDRhsV-38" vertex="1">
          <mxGeometry x="13" y="9.37" width="78.39" height="21.63" as="geometry" />
        </mxCell>
        <mxCell id="Hr4rtZjNvh9kyPlDRhsV-41" value="" style="rounded=1;whiteSpace=wrap;html=1;strokeColor=#0070F2;strokeWidth=1.5;arcSize=24;fillColor=#FFFFFF;perimeterSpacing=0;absoluteArcSize=1;" parent="1" vertex="1">
          <mxGeometry x="711.55" y="417" width="200.45" height="452" as="geometry" />
        </mxCell>
        <mxCell id="Hr4rtZjNvh9kyPlDRhsV-42" value="" style="rounded=1;whiteSpace=wrap;html=1;strokeColor=#0070F2;fillColor=#EBF8FF;arcSize=24;absoluteArcSize=1;imageWidth=64;imageHeight=64;strokeWidth=1.5;" parent="1" vertex="1">
          <mxGeometry x="731" y="482" width="160" height="368" as="geometry" />
        </mxCell>
        <mxCell id="Hr4rtZjNvh9kyPlDRhsV-43" value="&lt;font color=&quot;#475f75&quot; size=&quot;1&quot;&gt;&lt;b style=&quot;&quot;&gt;ODATA&lt;/b&gt;&lt;/font&gt;" style="rounded=1;whiteSpace=wrap;html=1;arcSize=50;strokeColor=#475f75;fillColor=default;strokeWidth=1.5;" parent="1" vertex="1">
          <mxGeometry x="1077" y="412" width="57" height="16" as="geometry" />
        </mxCell>
        <mxCell id="Hr4rtZjNvh9kyPlDRhsV-44" value="&lt;font style=&quot;font-size: 14px;&quot; face=&quot;arial&quot;&gt;&lt;b&gt;Global Account&lt;/b&gt;&lt;/font&gt;&lt;div style=&quot;&quot;&gt;&lt;font style=&quot;font-size: 10px;&quot; face=&quot;arial&quot;&gt;CA1092106TID000000000740620690&lt;/font&gt;&lt;br&gt;&lt;/div&gt;" style="text;html=1;align=left;verticalAlign=middle;resizable=0;points=[];autosize=1;strokeColor=none;fillColor=none;fontSize=12;fontColor=#1d2d3e;fontFamily=Helvetica;" parent="1" vertex="1">
          <mxGeometry x="723" y="426" width="187" height="43" as="geometry" />
        </mxCell>
        <mxCell id="Hr4rtZjNvh9kyPlDRhsV-45" value="" style="edgeStyle=orthogonalEdgeStyle;rounded=0;orthogonalLoop=1;jettySize=auto;html=1;fontSize=18;strokeColor=#475E75;fontFamily=Helvetica;fontColor=default;targetPerimeterSpacing=15;endSize=4;startSize=4;endArrow=none;endFill=0;strokeWidth=1.5;startArrow=none;startFill=0;curved=0;exitX=1;exitY=0.5;exitDx=0;exitDy=0;entryX=0;entryY=0.5;entryDx=0;entryDy=0;" parent="1" source="Hr4rtZjNvh9kyPlDRhsV-54" target="Hr4rtZjNvh9kyPlDRhsV-43" edge="1">
          <mxGeometry relative="1" as="geometry">
            <mxPoint x="1160" y="475" as="targetPoint" />
            <mxPoint x="866" y="653" as="sourcePoint" />
            <Array as="points">
              <mxPoint x="1005" y="570" />
              <mxPoint x="1005" y="420" />
            </Array>
          </mxGeometry>
        </mxCell>
        <mxCell id="Hr4rtZjNvh9kyPlDRhsV-46" value="&lt;font style=&quot;font-size: 10px;&quot;&gt;GET/POST&lt;/font&gt;" style="edgeLabel;html=1;align=center;verticalAlign=middle;resizable=0;points=[];fontSize=10;" parent="Hr4rtZjNvh9kyPlDRhsV-45" vertex="1" connectable="0">
          <mxGeometry x="-0.5145" y="1" relative="1" as="geometry">
            <mxPoint x="14" as="offset" />
          </mxGeometry>
        </mxCell>
        <mxCell id="Hr4rtZjNvh9kyPlDRhsV-47" value="&lt;font color=&quot;#475f75&quot; size=&quot;1&quot;&gt;&lt;b style=&quot;&quot;&gt;REST&lt;/b&gt;&lt;/font&gt;" style="rounded=1;whiteSpace=wrap;html=1;arcSize=50;strokeColor=#475f75;fillColor=default;strokeWidth=1.5;" parent="1" vertex="1">
          <mxGeometry x="1077" y="467" width="57" height="16" as="geometry" />
        </mxCell>
        <mxCell id="Hr4rtZjNvh9kyPlDRhsV-48" value="SAP&lt;div&gt;Integration Suite&lt;/div&gt;" style="text;strokeColor=none;fillColor=none;html=1;align=center;verticalAlign=middle;whiteSpace=wrap;rounded=0;fontSize=14;" parent="1" vertex="1">
          <mxGeometry x="732.5" y="492" width="157" height="41" as="geometry" />
        </mxCell>
        <mxCell id="Hr4rtZjNvh9kyPlDRhsV-49" style="edgeStyle=orthogonalEdgeStyle;rounded=0;orthogonalLoop=1;jettySize=auto;html=1;fontSize=18;strokeColor=#475E75;fontFamily=Helvetica;fontColor=default;targetPerimeterSpacing=15;endSize=4;startSize=4;endArrow=blockThin;endFill=1;strokeWidth=1.5;startArrow=none;startFill=0;curved=0;exitX=0;exitY=0.5;exitDx=0;exitDy=0;entryX=1;entryY=0.25;entryDx=0;entryDy=0;" parent="1" source="Hr4rtZjNvh9kyPlDRhsV-47" target="Hr4rtZjNvh9kyPlDRhsV-51" edge="1">
          <mxGeometry relative="1" as="geometry">
            <mxPoint x="1023" y="524" as="targetPoint" />
            <mxPoint x="903" y="504" as="sourcePoint" />
            <Array as="points">
              <mxPoint x="1033" y="475" />
              <mxPoint x="1033" y="742" />
            </Array>
          </mxGeometry>
        </mxCell>
        <mxCell id="Hr4rtZjNvh9kyPlDRhsV-50" value="&lt;font style=&quot;font-size: 10px;&quot;&gt;POST&lt;/font&gt;" style="edgeLabel;html=1;align=center;verticalAlign=middle;resizable=0;points=[];fontSize=10;" parent="Hr4rtZjNvh9kyPlDRhsV-49" vertex="1" connectable="0">
          <mxGeometry x="0.5414" relative="1" as="geometry">
            <mxPoint x="8" y="-2" as="offset" />
          </mxGeometry>
        </mxCell>
        <mxCell id="Hr4rtZjNvh9kyPlDRhsV-51" value="Cloud Platform Integration" style="rounded=1;whiteSpace=wrap;html=1;strokeColor=#0070F2;strokeWidth=1.5;arcSize=16;fillColor=#ffffff;perimeterSpacing=0;absoluteArcSize=1;" parent="1" vertex="1">
          <mxGeometry x="752" y="713" width="111" height="118" as="geometry" />
        </mxCell>
        <mxCell id="Hr4rtZjNvh9kyPlDRhsV-52" value="Event Mesh" style="rounded=1;whiteSpace=wrap;html=1;strokeColor=#0070F2;strokeWidth=1.5;arcSize=16;fillColor=#ffffff;perimeterSpacing=0;absoluteArcSize=1;" parent="1" vertex="1">
          <mxGeometry x="752" y="610" width="111" height="57" as="geometry" />
        </mxCell>
        <mxCell id="Hr4rtZjNvh9kyPlDRhsV-53" value="" style="edgeStyle=orthogonalEdgeStyle;rounded=0;orthogonalLoop=1;jettySize=auto;html=1;fontSize=18;strokeColor=#475E75;fontFamily=Helvetica;fontColor=default;targetPerimeterSpacing=15;endSize=4;startSize=4;endArrow=openThin;endFill=0;strokeWidth=1.5;startArrow=none;startFill=0;curved=0;exitX=0.5;exitY=1;exitDx=0;exitDy=0;entryX=0.5;entryY=0;entryDx=0;entryDy=0;" parent="1" source="Hr4rtZjNvh9kyPlDRhsV-56" target="Hr4rtZjNvh9kyPlDRhsV-51" edge="1">
          <mxGeometry relative="1" as="geometry">
            <mxPoint x="545" y="849" as="targetPoint" />
            <mxPoint x="762" y="764" as="sourcePoint" />
            <Array as="points">
              <mxPoint x="808" y="704" />
              <mxPoint x="808" y="704" />
            </Array>
          </mxGeometry>
        </mxCell>
        <mxCell id="Hr4rtZjNvh9kyPlDRhsV-54" value="API Management" style="rounded=1;whiteSpace=wrap;html=1;strokeColor=#0070F2;strokeWidth=1.5;arcSize=16;fillColor=#ffffff;perimeterSpacing=0;absoluteArcSize=1;" parent="1" vertex="1">
          <mxGeometry x="752" y="541" width="111" height="57" as="geometry" />
        </mxCell>
        <mxCell id="Hr4rtZjNvh9kyPlDRhsV-55" value="" style="rounded=0;orthogonalLoop=1;jettySize=auto;html=1;fontSize=18;strokeColor=#475E75;fontFamily=Helvetica;fontColor=default;targetPerimeterSpacing=15;endSize=4;startSize=4;endArrow=none;endFill=0;strokeWidth=1.5;startArrow=none;startFill=0;exitX=0.5;exitY=1;exitDx=0;exitDy=0;entryX=0.5;entryY=0;entryDx=0;entryDy=0;" parent="1" source="Hr4rtZjNvh9kyPlDRhsV-52" target="Hr4rtZjNvh9kyPlDRhsV-56" edge="1">
          <mxGeometry relative="1" as="geometry">
            <mxPoint x="720" y="1022" as="targetPoint" />
            <mxPoint x="720" y="976" as="sourcePoint" />
          </mxGeometry>
        </mxCell>
        <mxCell id="Hr4rtZjNvh9kyPlDRhsV-56" value="&lt;font color=&quot;#475f75&quot; size=&quot;1&quot;&gt;&lt;b style=&quot;&quot;&gt;AMQP&lt;/b&gt;&lt;/font&gt;" style="rounded=1;whiteSpace=wrap;html=1;arcSize=50;strokeColor=#475f75;fillColor=default;strokeWidth=1.5;" parent="1" vertex="1">
          <mxGeometry x="779" y="678" width="57" height="16" as="geometry" />
        </mxCell>
        <mxCell id="Hr4rtZjNvh9kyPlDRhsV-57" value="&lt;font size=&quot;1&quot;&gt;&lt;b&gt;Firewall&lt;/b&gt;&lt;/font&gt;" style="rounded=1;whiteSpace=wrap;html=1;arcSize=50;strokeColor=#de5353;fillColor=default;strokeWidth=1.5;fontColor=#de5353;" parent="1" vertex="1">
          <mxGeometry x="327.5" y="617" width="57" height="16" as="geometry" />
        </mxCell>
        <mxCell id="Hr4rtZjNvh9kyPlDRhsV-58" value="" style="endArrow=none;html=1;strokeColor=light-dark(#d20909, #ba98ff);bendable=1;rounded=0;endFill=0;endSize=4;startArrow=none;startFill=0;startSize=4;jumpStyle=none;jumpSize=0;targetPerimeterSpacing=15;dashed=1;strokeWidth=1.5;fontSize=16;entryX=0;entryY=0.5;entryDx=0;entryDy=0;" parent="1" target="Hr4rtZjNvh9kyPlDRhsV-59" edge="1">
          <mxGeometry width="50" height="50" relative="1" as="geometry">
            <mxPoint x="494" y="828" as="sourcePoint" />
            <mxPoint x="494" y="661" as="targetPoint" />
          </mxGeometry>
        </mxCell>
        <mxCell id="Hr4rtZjNvh9kyPlDRhsV-59" value="&lt;font size=&quot;1&quot;&gt;&lt;b&gt;Firewall&lt;/b&gt;&lt;/font&gt;" style="rounded=1;whiteSpace=wrap;html=1;arcSize=50;strokeColor=#de5353;fillColor=default;strokeWidth=1.5;fontColor=#de5353;rotation=-90;" parent="1" vertex="1">
          <mxGeometry x="466" y="731" width="57" height="16" as="geometry" />
        </mxCell>
        <mxCell id="Hr4rtZjNvh9kyPlDRhsV-60" style="edgeStyle=orthogonalEdgeStyle;rounded=0;orthogonalLoop=1;jettySize=auto;html=1;exitX=1;exitY=0.5;exitDx=0;exitDy=0;entryX=0.5;entryY=1;entryDx=0;entryDy=0;strokeWidth=1.5;strokeColor=light-dark(#475e75, #ededed);endArrow=blockThin;endFill=1;endSize=4;startSize=4;" parent="1" source="Hr4rtZjNvh9kyPlDRhsV-35" target="Hr4rtZjNvh9kyPlDRhsV-42" edge="1">
          <mxGeometry relative="1" as="geometry">
            <mxPoint x="443" y="919" as="sourcePoint" />
            <mxPoint x="762" y="812" as="targetPoint" />
            <Array as="points">
              <mxPoint x="984" y="1088" />
              <mxPoint x="984" y="956" />
              <mxPoint x="811" y="956" />
            </Array>
          </mxGeometry>
        </mxCell>
        <mxCell id="Hr4rtZjNvh9kyPlDRhsV-61" value="Job Monitoring" style="edgeLabel;html=1;align=center;verticalAlign=middle;resizable=0;points=[];" parent="Hr4rtZjNvh9kyPlDRhsV-60" vertex="1" connectable="0">
          <mxGeometry x="0.2637" relative="1" as="geometry">
            <mxPoint as="offset" />
          </mxGeometry>
        </mxCell>
        <mxCell id="Hr4rtZjNvh9kyPlDRhsV-62" style="edgeStyle=orthogonalEdgeStyle;rounded=0;orthogonalLoop=1;jettySize=auto;html=1;fontSize=18;strokeColor=#475E75;fontFamily=Helvetica;fontColor=default;targetPerimeterSpacing=15;endSize=4;startSize=4;endArrow=none;endFill=0;strokeWidth=1.5;startArrow=none;startFill=0;curved=0;exitX=1;exitY=0.5;exitDx=0;exitDy=0;entryX=0;entryY=0.5;entryDx=0;entryDy=0;" parent="1" source="Hr4rtZjNvh9kyPlDRhsV-21" target="Hr4rtZjNvh9kyPlDRhsV-54" edge="1">
          <mxGeometry relative="1" as="geometry">
            <mxPoint x="433" y="762" as="targetPoint" />
            <mxPoint x="765" y="730" as="sourcePoint" />
            <Array as="points">
              <mxPoint x="639" y="476" />
              <mxPoint x="639" y="570" />
            </Array>
          </mxGeometry>
        </mxCell>
        <mxCell id="Hr4rtZjNvh9kyPlDRhsV-63" value="" style="edgeStyle=orthogonalEdgeStyle;rounded=0;orthogonalLoop=1;jettySize=auto;html=1;fontSize=18;strokeColor=#475E75;fontFamily=Helvetica;fontColor=default;targetPerimeterSpacing=15;endSize=4;startSize=4;endArrow=none;endFill=0;strokeWidth=1.5;startArrow=openThin;startFill=0;curved=0;exitX=0;exitY=0.5;exitDx=0;exitDy=0;entryX=1;entryY=0.5;entryDx=0;entryDy=0;" parent="1" source="Hr4rtZjNvh9kyPlDRhsV-52" target="Hr4rtZjNvh9kyPlDRhsV-19" edge="1">
          <mxGeometry relative="1" as="geometry">
            <mxPoint x="423" y="752" as="targetPoint" />
            <mxPoint x="755" y="719" as="sourcePoint" />
            <Array as="points">
              <mxPoint x="623" y="639" />
              <mxPoint x="623" y="518" />
            </Array>
          </mxGeometry>
        </mxCell>
        <mxCell id="Hr4rtZjNvh9kyPlDRhsV-64" value="" style="rounded=0;orthogonalLoop=1;jettySize=auto;html=1;fontSize=18;strokeColor=light-dark(#475e75, #ededed);fontFamily=Helvetica;fontColor=default;targetPerimeterSpacing=15;endSize=4;startSize=4;endArrow=none;endFill=0;strokeWidth=1.5;startArrow=openThin;startFill=0;exitX=0;exitY=0.25;exitDx=0;exitDy=0;entryX=1;entryY=0.5;entryDx=0;entryDy=0;edgeStyle=orthogonalEdgeStyle;" parent="1" source="Hr4rtZjNvh9kyPlDRhsV-51" target="Hr4rtZjNvh9kyPlDRhsV-25" edge="1">
          <mxGeometry relative="1" as="geometry">
            <mxPoint x="427.5" y="806" as="targetPoint" />
            <mxPoint x="756.5" y="704" as="sourcePoint" />
            <Array as="points">
              <mxPoint x="605" y="743" />
              <mxPoint x="605" y="559" />
            </Array>
          </mxGeometry>
        </mxCell>
        <mxCell id="Hr4rtZjNvh9kyPlDRhsV-65" style="edgeStyle=orthogonalEdgeStyle;rounded=0;orthogonalLoop=1;jettySize=auto;html=1;exitX=1;exitY=0.5;exitDx=0;exitDy=0;entryX=0;entryY=0.75;entryDx=0;entryDy=0;strokeWidth=1.5;strokeColor=light-dark(#475e75, #ededed);endArrow=blockThin;endFill=1;endSize=4;startSize=4;" parent="1" source="Hr4rtZjNvh9kyPlDRhsV-28" target="Hr4rtZjNvh9kyPlDRhsV-51" edge="1">
          <mxGeometry relative="1" as="geometry" />
        </mxCell>
        <mxCell id="Hr4rtZjNvh9kyPlDRhsV-66" value="" style="edgeStyle=orthogonalEdgeStyle;rounded=0;orthogonalLoop=1;jettySize=auto;html=1;exitX=1;exitY=0.75;exitDx=0;exitDy=0;entryX=0;entryY=0.5;entryDx=0;entryDy=0;strokeWidth=1.5;strokeColor=light-dark(#475e75, #ededed);endArrow=none;endFill=1;endSize=4;startSize=4;startFill=0;" parent="1" source="Hr4rtZjNvh9kyPlDRhsV-51" target="Hr4rtZjNvh9kyPlDRhsV-30" edge="1">
          <mxGeometry relative="1" as="geometry">
            <mxPoint x="863" y="802" as="sourcePoint" />
            <mxPoint x="1160" y="530" as="targetPoint" />
            <Array as="points">
              <mxPoint x="1064" y="802" />
              <mxPoint x="1064" y="530" />
            </Array>
          </mxGeometry>
        </mxCell>
        <mxCell id="Hr4rtZjNvh9kyPlDRhsV-67" value="&lt;font color=&quot;#475f75&quot; size=&quot;1&quot;&gt;&lt;b style=&quot;&quot;&gt;SFTP&lt;/b&gt;&lt;/font&gt;" style="rounded=1;whiteSpace=wrap;html=1;arcSize=50;strokeColor=#475f75;fillColor=default;strokeWidth=1.5;" parent="1" vertex="1">
          <mxGeometry x="483" y="901" width="57" height="16" as="geometry" />
        </mxCell>
      </root>
    </mxGraphModel>
  </diagram>
</mxfile>
